<?xml version="1.0" encoding="UTF-8" standalone="no"?>
<!-- Created with Inkscape (http://www.inkscape.org/) -->

<svg
   version="1.1"
   id="svg2"
   width="4000"
   height="6666.6665"
   viewBox="0 0 4000 6666.6665"
   sodipodi:docname="vecteezy_vector-graphic-design-illustration-of-ball-field-background_15181060.eps"
   xmlns:inkscape="http://www.inkscape.org/namespaces/inkscape"
   xmlns:sodipodi="http://sodipodi.sourceforge.net/DTD/sodipodi-0.dtd"
   xmlns="http://www.w3.org/2000/svg"
   xmlns:svg="http://www.w3.org/2000/svg">
  <defs
     id="defs6" />
  <sodipodi:namedview
     id="namedview4"
     pagecolor="#ffffff"
     bordercolor="#000000"
     borderopacity="0.25"
     inkscape:showpageshadow="2"
     inkscape:pageopacity="0.0"
     inkscape:pagecheckerboard="0"
     inkscape:deskcolor="#d1d1d1" />
  <g
     id="g8"
     inkscape:groupmode="layer"
     inkscape:label="ink_ext_XXXXXX"
     transform="matrix(1.3333333,0,0,-1.3333333,0,6666.6667)">
    <g
       id="g10"
       transform="scale(0.1)">
      <path
         d="M 16987.7,50000 V 0 h 2884.7 v 50000 h -2884.7"
         style="fill:#02a576;fill-opacity:1;fill-rule:nonzero;stroke:none"
         id="path12" />
      <path
         d="m 22864,0 h 2920.3 V 50000 H 22864 V 0"
         style="fill:#02a576;fill-opacity:1;fill-rule:nonzero;stroke:none"
         id="path14" />
      <path
         d="M 11075.8,50000 V 0 h 2920.3 v 50000 h -2920.3"
         style="fill:#02a576;fill-opacity:1;fill-rule:nonzero;stroke:none"
         id="path16" />
      <path
         d="M 2207.94,50000 H 0 V 0 h 2207.94 v 50000"
         style="fill:#02a576;fill-opacity:1;fill-rule:nonzero;stroke:none"
         id="path18" />
      <path
         d="M 28775.9,50000 V 0 H 30000 v 50000 h -1224.1"
         style="fill:#02a576;fill-opacity:1;fill-rule:nonzero;stroke:none"
         id="path20" />
      <path
         d="M 5199.5,50000 V 0 H 8084.23 V 50000 H 5199.5"
         style="fill:#02a576;fill-opacity:1;fill-rule:nonzero;stroke:none"
         id="path22" />
      <path
         d="M 5199.5,50000 H 2207.94 V 0 H 5199.5 v 50000"
         style="fill:#008c72;fill-opacity:1;fill-rule:nonzero;stroke:none"
         id="path24" />
      <path
         d="M 8084.23,50000 V 0 H 11075.8 V 50000 H 8084.23"
         style="fill:#008c72;fill-opacity:1;fill-rule:nonzero;stroke:none"
         id="path26" />
      <path
         d="M 13996.1,50000 V 0 h 2991.6 v 50000 h -2991.6"
         style="fill:#008c72;fill-opacity:1;fill-rule:nonzero;stroke:none"
         id="path28" />
      <path
         d="M 19872.4,50000 V 0 H 22864 v 50000 h -2991.6"
         style="fill:#008c72;fill-opacity:1;fill-rule:nonzero;stroke:none"
         id="path30" />
      <path
         d="m 25784.3,0 h 2991.6 V 50000 H 25784.3 V 0"
         style="fill:#008c72;fill-opacity:1;fill-rule:nonzero;stroke:none"
         id="path32" />
      <path
         d="M 16934.7,654.801 H 13124.5 V 2082.5 h 3810.2 z M 12302.2,24960.6 c 65.5,1684.7 1264.9,3031.9 2730.1,3031.9 1465.2,0 2664.7,-1347.2 2730.2,-3031.9 z m 5460.3,-290.4 c -65.5,-1684.7 -1265,-3031.9 -2730.2,-3031.9 -1465.2,0 -2664.6,1347.2 -2730.1,3031.9 z M 1944.47,2375.4 v 827.3 c 2.62,0.1 5.23,0.3 7.86,0.3 390.16,0 707.58,-369 707.58,-822.6 0,-1.7 -0.07,-3.3 -0.12,-5 z m 20742.43,0 v 8642.2 H 17675 c -138.8,308.2 -318.5,593.5 -536.1,846.5 -563.4,654.9 -1312.5,1015.6 -2109.3,1015.6 -796.7,0 -1545.8,-360.7 -2109.2,-1015.6 -217.7,-253 -397.3,-538.3 -536.1,-846.5 H 7372.38 V 2375.4 H 2909.59 c 0.05,1.7 0.11,3.3 0.11,5 0,613.7 -429.48,1112.9 -957.37,1112.9 -2.63,0 -5.24,-0.1 -7.86,-0.2 V 24670.2 H 12052.2 c 30.7,-871.7 337,-1686.1 870.9,-2306.7 563.4,-654.9 1312.5,-1015.6 2109.2,-1015.6 796.8,0 1545.9,360.7 2109.3,1015.6 533.8,620.6 840.2,1435 870.9,2306.7 h 10105 V 3496.6 c -522.7,-7 -946.1,-503.3 -946.1,-1112.5 0,-2.9 0.1,-5.8 0.2,-8.7 z M 12672,11017.6 c 475.3,939.6 1354.1,1571.7 2357.6,1571.7 1003.6,0 1882.4,-632.1 2357.7,-1571.7 z M 19365.9,2375.4 V 6413.1 H 10693.4 V 2375.4 H 7622.18 v 8351.8 h 4645.72 273.9 4975.6 273.9 4645.8 V 2375.4 Z m -8422.7,0 v 3747.3 h 8172.9 V 2375.4 Z m 16478.1,0 c 0,2.9 -0.1,5.8 -0.1,8.7 0,449.1 311.3,815.1 696.3,822.2 V 2375.4 Z M 1944.47,46654.2 c 3.54,0 7.02,-0.3 10.56,-0.3 527.9,0 957.38,499.3 957.38,1112.9 0,2.6 -0.15,5.1 -0.17,7.6 H 7375.09 V 39129.6 H 12387 c 138.8,-308.1 318.5,-593.4 536.1,-846.4 563.4,-654.9 1312.5,-1015.6 2109.2,-1015.6 796.8,0 1545.9,360.7 2109.3,1015.6 217.6,253 397.3,538.3 536.1,846.4 h 5011.9 v 8644.8 h 4484.7 c 0,-3.7 -0.2,-7.5 -0.2,-11.2 0,-609.3 423.4,-1105.5 946.1,-1112.6 V 25186.7 h -2.7 v -226.1 h -10105 c -30.7,871.7 -337.1,1686.1 -870.9,2306.7 -563.4,654.9 -1312.5,1015.5 -2109.3,1015.5 -796.7,0 -1545.8,-360.6 -2109.2,-1015.5 -533.9,-620.6 -840.2,-1435 -870.9,-2306.7 H 1944.47 Z m 0,1120.2 h 717.98 c 0.02,-2.5 0.16,-5 0.16,-7.6 0,-453.5 -317.41,-822.5 -707.58,-822.5 -3.54,0 -7.03,0.3 -10.56,0.3 z M 17390,39129.6 c -475.3,-939.5 -1354.1,-1571.6 -2357.7,-1571.6 -1003.5,0 -1882.3,632.1 -2357.6,1571.6 z m -9765.12,8644.8 h 3071.22 v -4040.2 h 8672.5 v 4040.2 h 3071.2 V 39420 H 17794 17520.1 12544.5 12270.6 7624.88 Z m 3321.02,0 h 8172.9 v -3749.8 h -8172.9 z m 2181.3,1718.1 h 3810.2 v -1427.7 h -3810.2 z m 14296.9,-1718.1 h 696.1 V 46941 c -385,7 -696.3,373 -696.3,822.2 0,3.7 0.2,7.5 0.2,11.2 z m 49.3,290.4 H 17187.2 v 1718.1 H 12877.4 V 48064.8 H 10696.1 7375.09 2877.27 2614.36 1694.68 v -1062.5 -306.2 -21509.4 h -2.71 V 3451.2 3145 2082.5 h 919.68 262.92 4497.81 3321.02 2181.3 V 364.398 h 4309.8 V 2082.5 h 2181.4 3321 4520.5 263.3 896.6 v 2.5 h 2.7 v 22585.2 290.4 21724.7 303.6 1075.9 h -896.6"
         style="fill:#ffffff;fill-opacity:1;fill-rule:nonzero;stroke:none"
         id="path34" />
    </g>
  </g>
</svg>
